{"scene":0,"asset":{"generator":"ImageToStl.com","version":"2.0"},"scenes":[{"name":"Scene","nodes":[0]}],"nodes":[{"name":"Node0","children":[1,2]},{"name":"Node1","mesh":0},{"name":"Node2","mesh":1}],"materials":[{"name":"Material","pbrMetallicRoughness":{"baseColorFactor":[0.0,0.0,0.0,1.0],"metallicFactor":1.0,"roughnessFactor":0.4},"emissiveFactor":[0.0,0.0,0.0],"doubleSided":true},{"name":"eye","pbrMetallicRoughness":{"baseColorFactor":[0.8,0.8,0.8,1.0],"metallicFactor":1.0,"roughnessFactor":0.4},"emissiveFactor":[0.0,0.0,0.0],"doubleSided":true},{"name":"Material.001","pbrMetallicRoughness":{"baseColorFactor":[0.8,0.8,0.8,1.0],"metallicFactor":1.0,"roughnessFactor":0.4},"emissiveFactor":[0.0,0.0,0.0],"doubleSided":true}],"meshes":[{"name":"Mesh0","primitives":[{"indices":3,"material":0,"attributes":{"POSITION":0,"NORMAL":1,"TEXCOORD_0":2}},{"indices":4,"material":1,"attributes":{"POSITION":0,"NORMAL":1,"TEXCOORD_0":2}}]},{"name":"Mesh0","primitives":[{"indices":8,"material":2,"attributes":{"POSITION":5,"NORMAL":6,"TEXCOORD_0":7}}]}],"accessors":[{"bufferView":0,"componentType":5126,"count":29643,"type":"VEC3","min":[-1.886013,-6.5206294,-3.1719308],"max":[1.8860141,7.218584,2.559225]},{"bufferView":1,"componentType":5126,"count":29643,"type":"VEC3"},{"bufferView":2,"componentType":5126,"count":29643,"type":"VEC2"},{"bufferView":3,"componentType":5123,"count":445680,"type":"SCALAR"},{"bufferView":4,"componentType":5123,"count":8640,"type":"SCALAR"},{"bufferView":5,"componentType":5126,"count":14,"type":"VEC3","min":[-7.767418,-10.299591,-11.375766],"max":[14.984114,12.451941,11.375766]},{"bufferView":6,"componentType":5126,"count":14,"type":"VEC3"},{"bufferView":7,"componentType":5126,"count":14,"type":"VEC2"},{"bufferView":8,"componentType":5123,"count":108,"type":"SCALAR"}],"bufferViews":[{"target":34962,"buffer":0,"byteLength":355716,"byteOffset":0},{"target":34962,"buffer":0,"byteLength":355716,"byteOffset":355716},{"target":34962,"buffer":0,"byteLength":237144,"byteOffset":711432},{"target":34963,"buffer":0,"byteLength":891360,"byteOffset":948576},{"target":34963,"buffer":0,"byteLength":17280,"byteOffset":1839936},{"target":34962,"buffer":0,"byteLength":168,"byteOffset":1857216},{"target":34962,"buffer":0,"byteLength":168,"byteOffset":1857384},{"target":34962,"buffer":0,"byteLength":112,"byteOffset":1857552},{"target":34963,"buffer":0,"byteLength":216,"byteOffset":1857664}],"buffers":[{"byteLength":1857880,"uri":"data:application/octet-stream;base64,"}]}